HIERARCHY
ROOT Hips
{
  OFFSET 41.6855 103.514 -148.883
  CHANNELS 6 Xposition Yposition Zposition Zrotation Xrotation Yrotation
  JOINT RightUpLeg
  {
    OFFSET -8.9458 -8.66707 0.101652
    CHANNELS 3 Zrotation Xrotation Yrotation
    JOINT RightLeg
    {
      OFFSET 0 -44.4227 1.3727
      CHANNELS 3 Zrotation Xrotation Yrotation
      JOINT RightFoot
      {
        OFFSET 0.253549 -42.0924 -1.46059
        CHANNELS 3 Zrotation Xrotation Yrotation
        JOINT RightToes
        {
          OFFSET 0.04 -4.41509 8.4991
          CHANNELS 3 Zrotation Xrotation Yrotation
          End Site
          {
            OFFSET -0.08 -0.137448 9.77979
          }
        }
      }
    }
  }
  JOINT Spine
  {
    OFFSET 0 11.8905 0
    CHANNELS 3 Zrotation Xrotation Yrotation
    JOINT Spine1
    {
      OFFSET 0 25.6574 0.127663
      CHANNELS 3 Zrotation Xrotation Yrotation
      JOINT HEad
      {
        OFFSET 0 8.73416 0.011341
        CHANNELS 3 Zrotation Xrotation Yrotation
        End Site
        {
          OFFSET -0.29 12.7742 2.51395
        }
      }
      JOINT LeftShoulder1
      {
        OFFSET 8.99 -0.362252 -0.22
        CHANNELS 3 Zrotation Xrotation Yrotation
        JOINT LeftArm
        {
          OFFSET 10.2827 -0.00338 0.322123
          CHANNELS 3 Zrotation Xrotation Yrotation
          JOINT LeftForeArm
          {
            OFFSET 32.7669 0.099144 -1.42434
            CHANNELS 3 Zrotation Xrotation Yrotation
            JOINT LeftHand
            {
              OFFSET 27.5643 0.085362 1.02216
              CHANNELS 3 Zrotation Xrotation Yrotation
              End Site
              {
                OFFSET 16.7443 -0.6 1.50291
              }
            }
          }
        }
      }
      JOINT RightShoulder
      {
        OFFSET -8.99 -0.362252 -0.22
        CHANNELS 3 Zrotation Xrotation Yrotation
        JOINT RightArm
        {
          OFFSET -10.2827 -0.00338 0.322123
          CHANNELS 3 Zrotation Xrotation Yrotation
          JOINT RightForeArm
          {
            OFFSET -32.8971 0.099144 -1.42434
            CHANNELS 3 Zrotation Xrotation Yrotation
            JOINT RightHand
            {
              OFFSET -27.4921 0.085362 1.02216
              CHANNELS 3 Zrotation Xrotation Yrotation
              End Site
              {
                OFFSET -16.6312 -0.6 1.50291
              }
            }
          }
        }
      }
    }
  }
  JOINT LeftUpLeg
  {
    OFFSET 8.9458 -8.66707 0.101652
    CHANNELS 3 Zrotation Xrotation Yrotation
    JOINT LeftLeg
    {
      OFFSET 0 -44.4227 1.3727
      CHANNELS 3 Zrotation Xrotation Yrotation
      JOINT LeftFoot
      {
        OFFSET -0.253549 -42.0924 -1.46059
        CHANNELS 3 Zrotation Xrotation Yrotation
        JOINT LeftToes
        {
          OFFSET -0.04 -4.41509 8.4991
          CHANNELS 3 Zrotation Xrotation Yrotation
          End Site
          {
            OFFSET 0.08 -0.047448 9.77979
          }
        }
      }
    }
  }
}
MOTION
Frames:	12
Frame Time:	0.0166667
54.1577 103.652 43.9656 1.55572 0.732139 5.04206 -0.990447 -23.6468 0.246656 3.54163 23.7476 -37.2313 22.7832 7.94947 -2.23969 -1.48263 7.28145 3.57119 -3.67714 2.93467 -0.118901 -0.476681 -18.0458 -0.100047 7.12001 31.4582 -5.76499 -5.96354e-016 3.18055e-015 1.59028e-015 -89.6914 -22.9272 -15.385 -22.7986 17.3963 -25.8792 0.368473 9.90896 -0.00117926 3.52137 -0.0302415 -3.75914 60.3373 -30.6843 -22.5919 24.4479 12.7406 5.31053 -0.369625 9.91382 0.00119887 -4.10692 1.25713 -7.00038 -18.0597 41.3395 40.293 -1.77619 -16.7875 -0.0960819 -0.510216 0.219526 -0.784071 
54.0985 103.886 45.9365 1.52775 0.68701 4.51564 -0.501932 -22.4929 -0.106366 3.27137 23.961 -35.8137 22.6708 6.99997 -2.03791 -1.31015 6.08602 3.32004 -3.49771 2.91568 -0.0130514 0.043747 -17.8247 -0.0626502 6.47094 31.697 -5.14282 -3.97569e-016 0 -7.95139e-016 -89.3145 -23.4823 -14.3477 -22.8936 17.4632 -26.1732 0.368473 9.90896 -0.00117926 3.06781 0.0087645 -3.42497 61.9227 -30.3146 -20.8937 24.3572 12.677 4.98868 -0.369625 9.91382 0.00119887 -3.01015 -1.08172 -5.10434 -20.1628 45.4744 42.3401 -1.51733 -13.3093 -0.00703685 -1.16327 3.56247 -1.96236 
54.0279 104.162 47.7871 1.40879 0.904867 4.2223 -0.052733 -21.4151 1.12257 3.63266 23.5738 -36.3535 22.6331 6.37059 -1.91471 -1.11226 4.85239 3.00733 -3.27109 2.96791 0.0639385 0.50807 -17.8808 -0.0300533 5.76566 31.799 -4.64557 -0 0 7.95139e-016 -89.0847 -24.0477 -13.568 -23.0238 17.4815 -26.2039 0.368473 9.90896 -0.00117926 2.753 0.0311249 -3.21908 63.407 -29.529 -19.2708 24.5929 12.692 5.15829 -0.369625 9.91382 0.00119887 -1.80447 -4.09852 -3.92683 -22.583 49.5917 45.0312 -1.96757 -9.14679 0.0342268 -0.9167 5.62802 -1.62695 
53.9426 104.417 49.5619 1.27032 1.17506 4.01918 0.310159 -20.3591 2.59265 4.12432 23.0606 -37.2739 22.6692 5.79686 -1.80856 -0.916586 3.72086 2.67123 -2.99025 3.05971 0.114432 0.855025 -17.9029 -0.00920269 5.24311 31.6865 -4.2473 -3.97569e-016 0 -0 -88.9219 -24.6814 -12.9671 -23.1268 17.4694 -26.1015 0.368473 9.90896 -0.00117926 2.54137 0.0565998 -2.97393 64.9246 -28.5825 -17.5049 24.8826 12.7592 5.59049 -0.369625 9.91382 0.00119887 -0.626484 -7.31869 -3.11805 -25.4153 53.3871 47.9262 -2.41884 -5.85246 0.0525829 -0.476986 7.01928 -0.833583 
53.8376 104.572 51.2937 1.1718 1.32789 3.80639 0.594612 -19.4057 3.30576 4.44905 23.0115 -37.3637 22.8917 4.94116 -1.65738 -0.732999 2.93866 2.31627 -2.65366 3.18039 0.131101 0.989259 -17.6189 -0.00806111 5.26463 31.1587 -3.9892 -1.98785e-016 -1.59028e-015 7.95139e-016 -88.8183 -25.4902 -12.5669 -23.1164 17.4305 -25.9459 0.368473 9.90896 -0.00117926 2.49763 0.105352 -2.5181 66.5322 -27.6652 -15.3777 24.9995 12.8676 6.14755 -0.369625 9.91382 0.00119887 0.300331 -10.2672 -2.54667 -28.4764 56.6203 50.2805 -2.15597 -5.4426 0.0575046 -0.292423 8.10731 -0.515918 
53.7262 104.683 52.9665 1.07374 1.38267 3.65969 0.857175 -18.4123 3.64871 4.66064 23.0536 -37.1617 23.1484 4.03263 -1.49593 -0.579135 2.33265 2.00583 -2.30057 3.31824 0.133448 1.05769 -17.0812 -0.0153803 5.4403 30.4006 -3.79043 4.41391e-032 1.59028e-015 -1.59028e-015 -88.8752 -26.3714 -12.3927 -22.9975 17.3649 -25.7287 0.368473 9.90896 -0.00117926 2.47801 0.160383 -1.99495 68.2073 -26.7382 -12.9915 24.9934 13.007 6.81234 -0.369625 9.91382 0.00119887 1.02635 -13.0728 -2.35439 -31.2983 59.2214 51.8691 -1.79649 -6.31609 0.0467366 -0.126575 8.5987 -0.225898 
53.6173 104.78 54.5526 0.937226 1.2533 3.65677 1.15966 -17.2159 3.54454 4.66771 23.0108 -36.7198 23.2833 3.18582 -1.3341 -0.475198 1.82671 1.80227 -1.97663 3.47319 0.143316 1.21007 -16.1396 -0.0214892 5.50154 29.4652 -3.60475 9.93923e-017 -1.59028e-015 1.59028e-015 -89.2912 -27.2142 -12.5933 -22.7094 17.2718 -25.4772 0.368473 9.90896 -0.00117926 2.3333 0.207939 -1.52346 70.0313 -25.855 -10.2827 24.7924 13.1694 7.5313 -0.369625 9.91382 0.00119887 1.48181 -15.6947 -2.70396 -33.1699 61.054 51.5479 -1.80452 -7.60606 0.0169796 0.102804 8.20939 0.180674 
53.5189 104.869 56.1198 0.82117 1.08646 3.69215 1.46466 -15.9398 3.37441 4.59285 22.8764 -36.281 23.4118 2.4071 -1.18262 -0.421635 1.37706 1.71546 -1.66146 3.59963 0.146372 1.34276 -15.129 -0.0295859 5.43922 28.545 -3.36517 -2.98177e-016 -1.59028e-015 -0 -89.7948 -28.1411 -12.8294 -22.3624 17.1581 -25.1655 0.368473 9.90896 -0.00117926 2.14705 0.258334 -1.00521 71.7901 -24.9448 -7.50899 24.5364 13.3397 8.27542 -0.369625 9.91382 0.00119887 1.73724 -18.1647 -3.44847 -34.2095 61.9788 50.7895 -1.93723 -9.12593 -0.0204813 0.389109 7.28184 0.679987 
53.4436 104.974 57.742 0.798976 1.05376 3.65895 1.68783 -14.691 3.5474 4.51998 22.5692 -36.164 23.6292 1.76314 -1.06124 -0.493974 0.953056 1.93388 -1.36397 3.62576 0.132594 1.38178 -14.4335 -0.0399488 5.09861 27.9809 -2.98337 0 0 -0 -90.1223 -29.3376 -12.7127 -22.0389 17.0235 -24.7586 0.368473 9.90896 -0.00117926 1.95228 0.322978 -0.324396 73.2766 -24.0037 -4.97804 24.3513 13.4967 8.98083 -0.369625 9.91382 0.00119887 1.88503 -20.5419 -4.58125 -34.9597 61.6372 51.724 -2.11483 -10.3568 -0.054983 0.774538 6.04732 1.34311 
53.3869 105.073 59.373 0.787785 0.994218 3.63881 1.89894 -13.3608 3.8614 4.46443 22.1563 -36.1967 23.8341 1.18775 -0.952546 -0.489172 0.438816 1.98495 -1.04166 3.63005 0.110867 1.38732 -13.7549 -0.0518153 4.65279 27.378 -2.47575 2.98177e-016 0 -3.97569e-016 -90.3563 -30.5213 -12.5021 -21.7601 16.887 -24.3105 0.368473 9.90896 -0.00117926 1.74928 0.384812 0.347807 74.6045 -22.9718 -2.46071 24.2134 13.6542 9.69705 -0.369625 9.91382 0.00119887 1.90299 -22.6931 -5.83953 -34.8268 60.4681 52.7427 -2.30524 -11.4288 -0.087245 1.19422 4.55633 2.03289 
53.35 105.157 60.9761 0.714385 0.742674 3.72748 2.15706 -11.8063 4.27607 4.50382 21.6424 -36.3666 23.9062 0.654703 -0.848263 -0.160617 -0.419241 1.24723 -0.633209 3.686 0.0851204 1.3944 -12.8141 -0.0655127 4.26182 26.3123 -1.81427 9.93923e-017 1.59028e-015 7.95139e-016 -90.5344 -31.3628 -12.4298 -21.5724 16.7702 -23.8646 0.368473 9.90896 -0.00117926 1.56792 0.425342 0.817654 75.8008 -21.7248 0.243956 24.1508 13.817 10.45 -0.369625 9.91382 0.00119887 1.86394 -24.4779 -6.95642 -33.3259 58.8363 53.0834 -2.44209 -12.3127 -0.114792 1.55342 2.79411 2.60372 
53.3286 105.213 62.5969 0.624767 0.483422 3.77582 2.42526 -10.2375 4.72448 4.53318 21.1305 -36.5111 24.0025 0.110679 -0.74114 0.204667 -1.24079 0.356765 -0.203892 3.73679 0.0601846 1.4049 -11.9371 -0.0779853 3.86064 25.2088 -1.06951 -1.98785e-016 1.59028e-015 -0 -90.5875 -32.179 -12.1981 -21.4879 16.669 -23.4165 0.368473 9.90896 -0.00117926 1.35723 0.460415 1.26859 76.8099 -20.4116 2.87348 24.1305 13.9885 11.2474 -0.369625 9.91382 0.00119887 1.8396 -26.0227 -7.83759 -30.996 56.6921 52.7754 -2.5472 -12.9674 -0.136165 1.9174 1.18965 3.16247 
